<svg xmlns="http://www.w3.org/2000/svg" viewBox="0 0 1200 720" role="img" aria-labelledby="title desc">
  <title id="title">Flood relief charity campaign</title>
  <desc id="desc">Flood relief boats delivering supplies to homes.</desc>
  <defs>
    <linearGradient id="storm" x1="0" x2="1" y1="0" y2="1">
      <stop offset="0" stop-color="#1e293b"/>
      <stop offset=".56" stop-color="#2563eb"/>
      <stop offset="1" stop-color="#06b6d4"/>
    </linearGradient>
    <linearGradient id="water" x1="0" x2="1">
      <stop offset="0" stop-color="#0284c7"/>
      <stop offset="1" stop-color="#22d3ee"/>
    </linearGradient>
  </defs>
  <rect width="1200" height="720" fill="url(#storm)"/>
  <path d="M0 445c96-42 210-42 337 0s238 42 333 0 211-42 338 0 190 42 192 42v233H0z" fill="url(#water)" opacity=".95"/>
  <path d="M0 535c122-40 242-40 360 0s237 40 356 0 240-40 484 4v181H0z" fill="#0ea5e9" opacity=".55"/>
  <path d="m124 378 178-122 178 122v110H124z" fill="#f8fafc"/>
  <path d="m92 378 210-150 210 150z" fill="#f97316"/>
  <rect x="216" y="400" width="74" height="88" rx="8" fill="#334155"/>
  <rect x="326" y="400" width="74" height="58" rx="8" fill="#60a5fa"/>
  <path d="M650 500h360c-18 64-84 102-178 102h-4c-96 0-158-38-178-102z" fill="#f59e0b"/>
  <path d="M690 472h260l60 28H650z" fill="#fde68a"/>
  <rect x="752" y="405" width="128" height="68" rx="10" fill="#ef4444"/>
  <path d="M800 392h32v92h-32zM770 426h92v32h-92z" fill="#fff"/>
  <g stroke="#bae6fd" stroke-width="10" stroke-linecap="round" opacity=".95">
    <path d="M76 596c44-24 90-24 138 0"/>
    <path d="M344 602c48-26 96-26 144 0"/>
    <path d="M940 606c50-26 100-26 150 0"/>
  </g>
  <g stroke="#bfdbfe" stroke-width="8" stroke-linecap="round" opacity=".65">
    <path d="M150 80 95 190M270 62 215 172M1010 90 955 200M1112 122l-55 110"/>
  </g>
</svg>
