<svg xmlns="http://www.w3.org/2000/svg" viewBox="0 0 1200 720" role="img" aria-labelledby="title desc">
  <title id="title">Urban tree planting charity campaign</title>
  <desc id="desc">Volunteers planting trees in a green city park.</desc>
  <defs>
    <linearGradient id="bg" x1="0" x2="1" y1="0" y2="1">
      <stop offset="0" stop-color="#16a34a"/>
      <stop offset=".52" stop-color="#22c55e"/>
      <stop offset="1" stop-color="#60a5fa"/>
    </linearGradient>
    <linearGradient id="grass" x1="0" x2="1">
      <stop offset="0" stop-color="#166534"/>
      <stop offset="1" stop-color="#84cc16"/>
    </linearGradient>
  </defs>
  <rect width="1200" height="720" fill="url(#bg)"/>
  <path d="M0 438c154-82 295-98 466-38 208 72 432 58 734-58v378H0z" fill="url(#grass)"/>
  <g opacity=".34" fill="#e0f2fe">
    <rect x="110" y="230" width="82" height="180" rx="8"/>
    <rect x="220" y="174" width="98" height="236" rx="8"/>
    <rect x="345" y="250" width="78" height="160" rx="8"/>
    <rect x="895" y="198" width="98" height="212" rx="8"/>
    <rect x="1018" y="260" width="68" height="150" rx="8"/>
  </g>
  <g>
    <rect x="552" y="326" width="50" height="212" rx="20" fill="#7c2d12"/>
    <circle cx="575" cy="280" r="118" fill="#14532d"/>
    <circle cx="492" cy="310" r="74" fill="#15803d"/>
    <circle cx="664" cy="324" r="86" fill="#22c55e"/>
    <circle cx="574" cy="214" r="82" fill="#4ade80"/>
  </g>
  <g>
    <path d="M225 580c26-78 96-78 122 0" fill="#1d4ed8"/>
    <circle cx="286" cy="490" r="34" fill="#fbbf24"/>
    <path d="M856 585c26-78 96-78 122 0" fill="#7c3aed"/>
    <circle cx="918" cy="492" r="34" fill="#fde68a"/>
    <path d="M330 590 505 470" stroke="#78350f" stroke-width="18" stroke-linecap="round"/>
    <path d="M748 470 904 590" stroke="#78350f" stroke-width="18" stroke-linecap="round"/>
  </g>
  <path d="M446 610c110-56 216-56 322 0" stroke="#fef3c7" stroke-width="22" stroke-linecap="round" opacity=".9"/>
  <g fill="#bbf7d0">
    <circle cx="418" cy="606" r="18"/>
    <circle cx="784" cy="606" r="18"/>
    <circle cx="602" cy="584" r="20"/>
  </g>
</svg>
