<svg xmlns="http://www.w3.org/2000/svg" viewBox="0 0 1200 720" role="img" aria-labelledby="title desc">
  <title id="title">Medical support charity campaign</title>
  <desc id="desc">A compassionate hospital care scene with medical symbols.</desc>
  <defs>
    <linearGradient id="bg" x1="0" x2="1" y1="0" y2="1">
      <stop offset="0" stop-color="#fb7185"/>
      <stop offset=".52" stop-color="#8b5cf6"/>
      <stop offset="1" stop-color="#2563eb"/>
    </linearGradient>
    <linearGradient id="card" x1="0" x2="1">
      <stop offset="0" stop-color="#fff1f2"/>
      <stop offset="1" stop-color="#dbeafe"/>
    </linearGradient>
  </defs>
  <rect width="1200" height="720" fill="url(#bg)"/>
  <circle cx="160" cy="130" r="92" fill="#fff" opacity=".18"/>
  <circle cx="1040" cy="560" r="150" fill="#fff" opacity=".12"/>
  <rect x="150" y="170" width="900" height="390" rx="44" fill="url(#card)" opacity=".96"/>
  <rect x="224" y="252" width="250" height="58" rx="16" fill="#e11d48"/>
  <rect x="320" y="156" width="58" height="250" rx="16" fill="#e11d48"/>
  <rect x="590" y="242" width="315" height="42" rx="21" fill="#64748b" opacity=".35"/>
  <rect x="590" y="320" width="235" height="42" rx="21" fill="#64748b" opacity=".26"/>
  <rect x="590" y="398" width="280" height="42" rx="21" fill="#64748b" opacity=".22"/>
  <path d="M256 560c38-95 148-93 184 0" fill="#1e3a8a" opacity=".88"/>
  <circle cx="348" cy="444" r="54" fill="#fbbf24"/>
  <path d="M732 555c-26-80-18-148 44-190 76-52 184-6 184 93 0 78-68 113-135 113-35 0-68-6-93-16z" fill="#ec4899" opacity=".88"/>
  <path d="M792 412c30-62 104-62 134 0" stroke="#fff" stroke-width="22" stroke-linecap="round" fill="none"/>
  <path d="M786 480h150M862 404v150" stroke="#fff" stroke-width="24" stroke-linecap="round"/>
</svg>
